HIERARCHY
ROOT Hips
{
	OFFSET 0.00000 0.00000 0.00000
	CHANNELS 6 Xposition Yposition Zposition Zrotation Yrotation Xrotation 
	JOINT LHipJoint
	{
		OFFSET 0 0 0
		CHANNELS 3 Zrotation Yrotation Xrotation
		JOINT LeftHip
		{
			OFFSET 1.54859 -1.61379 0.86856
			CHANNELS 3 Zrotation Yrotation Xrotation
			JOINT LeftKnee
			{
				OFFSET 2.25087 -6.18423 0.00000
				CHANNELS 3 Zrotation Yrotation Xrotation
				JOINT LeftAnkle
				{
					OFFSET 2.40328 -6.60297 0.00000
					CHANNELS 3 Zrotation Yrotation Xrotation
					JOINT LeftToe
					{
						OFFSET 0.17435 -0.47901 2.02453
						CHANNELS 3 Zrotation Yrotation Xrotation
						End Site
						{
							OFFSET 0.00000 -0.00000 1.04844
						}
					}
				}
			}
		}
	}
	JOINT RHipJoint
	{
		OFFSET 0 0 0
		CHANNELS 3 Zrotation Yrotation Xrotation
		JOINT RightHip
		{
			OFFSET -1.54669 -1.61379 0.86856
			CHANNELS 3 Zrotation Yrotation Xrotation
			JOINT RightKnee
			{
				OFFSET -2.28132 -6.26789 0.00000
				CHANNELS 3 Zrotation Yrotation Xrotation
				JOINT RightAnkle
				{
					OFFSET -2.51636 -6.91365 0.00000
					CHANNELS 3 Zrotation Yrotation Xrotation
					JOINT RightToe
					{
						OFFSET -0.15124 -0.41552 2.21090
						CHANNELS 3 Zrotation Yrotation Xrotation
						End Site
						{
							OFFSET -0.00000 -0.00000 1.13399
						}
					}
				}
			}
		}
	}
	JOINT lowerback
	{
		OFFSET 0 0 0
		CHANNELS 3 Zrotation Yrotation Xrotation
		JOINT Chest
		{
			OFFSET -0.04287 2.26161 -0.25690
			CHANNELS 3 Zrotation Yrotation Xrotation
			JOINT Chest2
			{
				OFFSET 0.02248 2.28395 -0.10140
				CHANNELS 3 Zrotation Yrotation Xrotation
				JOINT lowerneck
				{
					OFFSET 0 0 0
					CHANNELS 3 Zrotation Yrotation Xrotation
					JOINT Neck
					{
						OFFSET -0.11644 1.38496 0.11345
						CHANNELS 3 Zrotation Yrotation Xrotation
						JOINT Head
						{
							OFFSET 0.29383 1.36600 0.06642
							CHANNELS 3 Zrotation Yrotation Xrotation
							End Site
							{
								OFFSET 0.11075 1.41395 -0.00294
							}
						}
					}
				}
				JOINT LeftCollar
				{
					OFFSET 0 0 0
					CHANNELS 3 Zrotation Yrotation Xrotation
					JOINT LeftShoulder
					{
						OFFSET 3.51628 0.59542 -0.30346
CHANNELS 3 Zrotation Xrotation Yrotation
						JOINT LeftElbow
						{
OFFSET 0 -4.764050 0.000000
CHANNELS 3 Zrotation Xrotation Yrotation
							JOINT LeftWrist
							{
OFFSET 0 -3.137590 -0.000000
CHANNELS 3 Zrotation Xrotation Yrotation
								JOINT lhand
								{
									OFFSET 0 0 0
CHANNELS 3 Zrotation Xrotation Yrotation
									JOINT LFingers
									{
OFFSET 0 -0.732260 -0.000000
CHANNELS 3 Zrotation Xrotation Yrotation
										End Site
										{
OFFSET 0 -0.590370 -0.000000
										}
									}
								}
								JOINT LThumb
								{
OFFSET 0 0.000000 0.000000
CHANNELS 3 Zrotation Xrotation Yrotation
									End Site
									{
OFFSET 0 -0.599380 0.599380
									}
								}
							}
						}
					}
				}
				JOINT RightCollar
				{
					OFFSET 0 0 0
					CHANNELS 3 Zrotation Yrotation Xrotation
					JOINT RightShoulder
					{
						OFFSET -3.30990 0.84213 -0.36430
CHANNELS 3 Zrotation Xrotation Yrotation
						JOINT RightElbow
						{
OFFSET 0 -5.101610 -0.000000
CHANNELS 3 Zrotation Xrotation Yrotation
							JOINT RightWrist
							{
OFFSET 0 -3.232670 -0.000000
CHANNELS 3 Zrotation Xrotation Yrotation
								JOINT rhand
								{
									OFFSET 0 0 0
CHANNELS 3 Zrotation Xrotation Yrotation
									JOINT RFingers
									{
OFFSET 0 -0.702000 -0.000000
CHANNELS 3 Zrotation Xrotation Yrotation
										End Site
										{
OFFSET 0 -0.565970 -0.000000
										}
									}
								}
								JOINT RThumb
								{
OFFSET 0 0.000000 0.000000
CHANNELS 3 Zrotation Xrotation Yrotation
									End Site
									{
OFFSET 0 -0.574610 0.574610
									}
								}
							}
						}
					}
				}
			}
		}
	}
}
MOTION
Frames: 10
Frame Time: 0.008333333333333333
-1.140379 15.058064 6.982909 -171.107781 40.678323 198.532093 0.000000 0.000000 0.000000 -13.975957 16.282573 -61.189976 10.040278 17.432380 59.622865 0.467020 1.131920 -13.368664 0.149448 2.490319 6.862879 0.000000 0.000000 0.000000 6.652053 1.474488 -24.793346 -2.126985 -9.125687 26.189426 0.098965 -9.351231 -11.403064 -7.704057 15.897153 -51.489514 -3.077483 -4.897752 31.797391 -1.223522 -5.045971 12.037714 2.016825 -1.673257 -3.459683 -10.917599 9.570639 -11.703245 3.130721 15.881382 -17.675443 2.424662 9.123932 -4.646762 0.000000 0.000000 0.000000 -11.252536 -32.430319 -54.156141 26.227916 -37.431530 9.026308 16.453555 -32.787299 -34.316289 0.000000 0.000000 0.000000 -7.125000 0.000000 0.000000 -20.779197 64.262536 9.899916 0.000000 0.000000 0.000000 4.969599 -22.007603 40.528340 -36.913755 -46.130323 -16.178170 -15.641998 -31.827974 -26.892377 0.000000 0.000000 0.000000 7.125000 0.000000 0.000000 8.611415 2.475446 8.325448
-1.096753 15.058774 6.960854 -170.859825 39.509808 198.380669 0.000000 0.000000 0.000000 -14.254607 16.996119 -61.897507 10.169349 17.503935 60.052798 0.437413 1.188401 -12.980722 0.080620 1.727660 4.756166 0.000000 0.000000 0.000000 7.259171 0.598538 -23.972633 -2.084200 -9.039304 25.918437 0.092595 -9.532074 -11.846257 -7.616282 15.829568 -51.168284 -2.868141 -4.834833 31.539543 -0.922605 -4.915420 11.877083 2.180948 -1.620340 -3.528440 -10.716057 9.517350 -11.283520 2.765947 15.700389 -17.889307 2.261477 9.029961 -4.720538 0.000000 0.000000 0.000000 -10.767653 -31.457829 -54.015067 27.157482 -38.327462 9.597238 15.564810 -32.894554 -35.023368 0.000000 0.000000 0.000000 -7.125000 0.000000 0.000000 -22.482597 64.666680 10.952946 0.000000 0.000000 0.000000 4.411627 -21.048799 40.995822 -37.766024 -46.688739 -16.795345 -15.126891 -32.406104 -26.648509 0.000000 0.000000 0.000000 7.125000 0.000000 0.000000 8.902256 2.796804 8.559775
-1.050862 15.055256 6.932649 -170.620691 38.354726 198.112518 0.000000 0.000000 0.000000 -14.674103 17.752968 -62.552518 10.300816 17.575549 60.489146 0.434262 1.675919 -13.173204 0.008993 0.554546 1.523940 0.000000 0.000000 0.000000 7.896088 -0.467595 -23.127836 -2.054746 -8.979166 25.730187 0.083401 -9.644067 -12.209879 -7.623684 15.835346 -51.195453 -2.327336 -4.768241 31.321756 -0.958862 -4.717061 11.658607 1.767664 -1.512977 -3.748271 -10.215994 9.428730 -10.953641 2.683406 15.475872 -17.778730 2.160937 8.878192 -4.671418 0.000000 0.000000 0.000000 -9.661515 -30.312489 -53.894427 28.098258 -39.205107 10.186280 11.788095 -34.486068 -34.596441 0.000000 0.000000 0.000000 -7.125000 0.000000 0.000000 -26.162852 63.274014 12.009734 0.000000 0.000000 0.000000 4.487177 -19.768414 41.373066 -38.845088 -47.368740 -17.585294 -15.528602 -32.779562 -26.312386 0.000000 0.000000 0.000000 7.125000 0.000000 0.000000 8.634541 3.076879 8.254138
-1.023843 15.035532 6.893826 -170.430102 37.170218 198.082965 0.000000 0.000000 0.000000 -15.444207 18.323562 -63.733734 10.477689 17.669789 61.073167 0.450174 2.399640 -13.777920 0.000806 0.145694 0.400234 0.000000 0.000000 0.000000 8.437127 -1.856908 -22.734237 -2.023739 -8.915249 25.530670 0.072934 -9.622877 -12.386605 -7.718767 15.908428 -51.543326 -1.733706 -4.761983 30.734930 -0.924484 -4.599664 11.414717 1.410977 -1.461929 -3.823423 -10.301924 9.249569 -10.869976 2.831516 15.268827 -17.808089 2.220006 8.779220 -4.694764 0.000000 0.000000 0.000000 -8.426980 -29.021778 -54.871011 29.914435 -40.815446 11.355308 14.123170 -36.639352 -31.820573 0.000000 0.000000 0.000000 -7.125000 0.000000 0.000000 -21.047433 61.358193 8.597628 0.000000 0.000000 0.000000 4.291222 -18.688199 42.100429 -40.043616 -48.094380 -18.472082 -16.694220 -33.948470 -26.816145 0.000000 0.000000 0.000000 7.125000 0.000000 0.000000 7.975227 2.390181 7.710554
-0.973075 15.030055 6.852096 -170.286933 35.663015 197.701711 0.000000 0.000000 0.000000 -16.177113 18.958840 -64.586690 10.675228 17.772213 61.721848 0.474150 3.176119 -14.572274 0.000982 0.074740 0.205369 0.000000 0.000000 0.000000 9.046682 -3.102669 -21.582792 -1.973449 -8.810314 25.203788 0.105345 -10.211317 -12.702125 -7.772624 15.949346 -51.739454 -1.486625 -4.679667 30.235254 -0.681988 -4.435818 11.288145 1.465511 -1.392173 -3.746119 -10.623733 9.004399 -11.163924 3.014510 15.002801 -17.458106 2.361127 8.652992 -4.557765 0.000000 0.000000 0.000000 -7.553348 -27.976190 -55.208021 31.938521 -42.489255 12.702403 13.948056 -37.281790 -32.539544 0.000000 0.000000 0.000000 -7.125000 0.000000 0.000000 -21.861463 61.976672 9.269061 0.000000 0.000000 0.000000 3.773858 -17.718747 42.967376 -41.510333 -48.934839 -19.571992 -18.315111 -35.590888 -27.221779 0.000000 0.000000 0.000000 7.125000 0.000000 0.000000 7.042836 1.714793 6.882038
-0.972147 15.009211 6.795643 -169.985200 34.357495 198.023003 0.000000 0.000000 0.000000 -17.331867 19.085006 -66.317810 10.874743 17.873144 62.374023 0.504677 4.640140 -15.925257 0.052091 1.376967 3.787798 0.000000 0.000000 0.000000 9.587337 -4.401785 -21.310937 -1.893646 -8.640712 24.677974 0.154882 -10.583348 -12.356267 -7.926844 16.065040 -52.298527 -0.550778 -4.610487 29.166212 -0.614468 -4.189325 10.978039 0.892233 -1.289357 -3.693265 -9.958499 8.792220 -10.963570 2.662554 14.573608 -17.287139 2.173538 8.401953 -4.427781 0.000000 0.000000 0.000000 -6.584413 -26.962346 -55.717585 34.264998 -44.273006 14.300149 14.935551 -37.169076 -33.713497 0.000000 0.000000 0.000000 -7.125000 0.000000 0.000000 -21.875552 63.305404 9.957019 0.000000 0.000000 0.000000 3.504981 -16.593681 43.454956 -43.549441 -50.033704 -21.122218 -18.672651 -36.114767 -27.193115 0.000000 0.000000 0.000000 7.125000 0.000000 0.000000 6.827241 1.683995 6.671668
-0.863644 15.020136 6.739386 -170.083581 32.060509 196.543990 0.000000 0.000000 0.000000 -18.202303 20.158171 -66.054431 10.981463 17.925963 62.721470 0.568433 4.805007 -16.805951 0.164381 2.611181 7.198146 0.000000 0.000000 0.000000 10.124306 -5.498883 -18.452806 -1.816404 -8.472571 24.158873 0.299635 -12.377612 -12.815422 -7.959825 16.089610 -52.417749 -0.801436 -4.540142 29.306205 -0.314488 -4.081789 11.025810 1.332862 -1.222331 -3.660867 -10.521390 8.540478 -12.187305 3.135053 14.390642 -15.989184 2.515424 8.299197 -3.898845 0.000000 0.000000 0.000000 -5.437348 -25.849673 -56.022088 37.059040 -46.219927 16.285140 17.204780 -36.410263 -35.289664 0.000000 0.000000 0.000000 -7.125000 0.000000 0.000000 -20.929014 65.364112 10.506523 0.000000 0.000000 0.000000 3.392218 -15.237150 43.972482 -46.140746 -51.309122 -23.127544 -19.779817 -37.284683 -27.705326 0.000000 0.000000 0.000000 7.125000 0.000000 0.000000 6.225912 0.965275 6.153905
-0.817570 15.008731 6.670979 -169.961476 30.281354 195.851918 0.000000 0.000000 0.000000 -19.462370 20.854246 -66.591178 11.047893 17.958425 62.936992 0.604558 5.694186 -17.863357 0.183702 2.760840 7.613585 0.000000 0.000000 0.000000 10.473422 -6.677072 -16.993981 -1.771940 -8.373920 23.855619 0.317096 -12.769175 -13.261154 -7.876967 16.027820 -52.117999 -0.645466 -4.362071 28.960187 -0.062630 -3.826524 10.816361 1.431659 -1.106698 -3.737619 -9.870702 8.484458 -12.122967 2.680584 14.112294 -15.348980 2.312531 8.096415 -3.613524 0.000000 0.000000 0.000000 -4.468525 -24.893032 -56.418350 40.208043 -48.174176 18.599891 18.482905 -36.104147 -35.559286 0.000000 0.000000 0.000000 -7.125000 0.000000 0.000000 -19.748465 65.973435 10.172764 0.000000 0.000000 0.000000 3.036154 -13.956527 44.454667 -49.437049 -52.750798 -25.729328 -21.235118 -38.894642 -28.763117 0.000000 0.000000 0.000000 7.125000 0.000000 0.000000 5.489460 -0.389419 5.555003
-0.769399 15.001599 6.593814 -170.190940 28.575735 194.962367 0.000000 0.000000 0.000000 -21.229118 21.640384 -67.011172 11.050161 17.959561 62.944362 0.643463 6.525309 -18.914096 0.220374 3.019186 8.332218 0.000000 0.000000 0.000000 10.387880 -7.710617 -15.549342 -1.775884 -8.382725 23.882680 0.301036 -12.945293 -13.925736 -7.723187 15.911725 -51.559274 -0.755928 -4.021167 28.504321 0.063291 -3.441115 10.621418 1.500241 -0.930807 -3.739685 -8.929806 8.229933 -11.363131 2.294001 13.532536 -15.293562 2.038146 7.745664 -3.580488 0.000000 0.000000 0.000000 -3.196064 -24.142459 -57.113746 43.894773 -50.202629 21.389812 20.082863 -35.239561 -36.118989 0.000000 0.000000 0.000000 -7.125000 0.000000 0.000000 -18.472659 66.961123 9.905327 0.000000 0.000000 0.000000 2.696419 -12.740690 44.646319 -53.367459 -54.255823 -28.888912 -21.313414 -39.124931 -27.922167 0.000000 0.000000 0.000000 7.125000 0.000000 0.000000 5.340456 0.458486 5.320498
-0.722968 14.985211 6.506261 -170.340993 26.631599 194.257205 0.000000 0.000000 0.000000 -22.880787 22.150633 -67.349128 10.986665 17.928538 62.738223 0.737040 6.940323 -20.187420 0.319662 3.632496 10.045222 0.000000 0.000000 0.000000 10.444771 -8.933062 -14.321644 -1.827024 -8.495847 24.230727 0.372560 -13.622075 -13.955582 -7.790064 15.962605 -51.802881 -0.612732 -3.706596 27.867733 0.157459 -3.061284 10.294085 1.390718 -0.764115 -3.823909 -9.467196 7.687516 -11.906258 3.080297 12.881033 -14.021567 2.461249 7.380968 -3.188287 0.000000 0.000000 0.000000 -1.891316 -23.532932 -57.900323 47.993001 -52.141337 24.583448 21.778280 -34.048042 -36.156481 0.000000 0.000000 0.000000 -7.125000 0.000000 0.000000 -16.457550 67.500569 9.003976 0.000000 0.000000 0.000000 2.595722 -11.538600 44.554542 -57.724406 -55.663111 -32.456721 -20.186498 -39.446472 -28.710653 0.000000 0.000000 0.000000 7.125000 0.000000 0.000000 6.097806 -0.135795 6.147098
